<svg id="Layer_1" data-name="Layer 1" xmlns="http://www.w3.org/2000/svg" viewBox="0 0 147.27 21"><defs><style>.cls-1{fill:#fff;}</style></defs><title>Artboard 1</title><path class="cls-1" d="M14.34,8.58l-3.12,3.3L8.79,14.49l-2.4-2.64L3.3,8.49V21H0V0L8.82,9.63,17.64.27V21h-3.3Z"/><path class="cls-1" d="M48,21H36.84V0H48V3.3H40.14V8.85H48v3.3H40.14V17.7H48Z"/><path class="cls-1" d="M77.91,21H66.75V0H77.91V3.3H70V8.85h7.86v3.3H70V17.7h7.86Z"/><path class="cls-1" d="M112.26,21H109l-9-7v7h-3.3V0H100V9.78l9,7V0h3.3Z"/><path class="cls-1" d="M147.27,21h-3.72l-4.11-7.86L134.76,21h-3.3V0h3.3V14.55L143.43,0h3.84l-5.85,9.81Z"/></svg>