<svg id="Layer_1" data-name="Layer 1" xmlns="http://www.w3.org/2000/svg" viewBox="0 0 215.17 38.68"><defs><style>.cls-1{fill:#fff;}</style></defs><title>Artboard 1</title><path class="cls-1" d="M82.24,17.25l-3.12,3.3-2.43,2.61-2.4-2.64L71.2,17.16V29.67H67.9v-21l8.82,9.63,8.82-9.36V29.67h-3.3Z"/><path class="cls-1" d="M115.9,29.67H104.74v-21H115.9V12H108v5.55h7.86v3.3H108v5.55h7.86Z"/><path class="cls-1" d="M145.81,29.67H134.65v-21h11.16V12H138v5.55h7.86v3.3H138v5.55h7.86Z"/><path class="cls-1" d="M180.16,29.67h-3.3l-9-7v7h-3.3v-21h3.3v9.78l9,7V8.67h3.3Z"/><path class="cls-1" d="M215.17,29.67h-3.72l-4.11-7.86-4.68,7.86h-3.3v-21h3.3V23.22l8.67-14.55h3.84l-5.85,9.81Z"/><path class="cls-1" d="M36.35,0H13.56L0,13.61,25,38.68,50,13.61ZM13.44,14.06v9.75l-9.2-9.75Zm22.5-1.25H27l8.94-9.88ZM25,12.79,15.07,2.19H34.93L25,12.79Zm-2,0H14.06V2.94Zm22.76,1.25-9.2,9.75V14.06Zm.14-1.25H36.56V3.51ZM13.44,3.43v9.38H4.1Zm.62,21.15V14.06H35.94V24.58L25,35.17Z"/></svg>